<?xml version="1.0" encoding="UTF-8" standalone="no"?>
<svg width="281px" height="95px" viewBox="0 0 281 95" version="1.1" xmlns="http://www.w3.org/2000/svg" xmlns:xlink="http://www.w3.org/1999/xlink">
    <!-- Generator: Sketch 3.8.1 (29687) - http://www.bohemiancoding.com/sketch -->
    <title>logo</title>
    <desc>Created with Sketch.</desc>
    <defs></defs>
    <g id="Welcome" stroke="none" stroke-width="1" fill="none" fill-rule="evenodd">
        <g id="Stream">
            <g id="Head" transform="translate(17.000000, 31.000000)">
                <g id="Logo">
                    <path d="M242,36 L2,36" id="Underline" stroke="#FFFFFF" stroke-width="4" stroke-linecap="square"></path>
                    <path d="M18.26,8.136 C17.7079972,7.46399664 17.030004,6.9480018 16.226,6.588 C15.421996,6.2279982 14.4920053,6.048 13.436,6.048 C12.3799947,6.048 11.4020045,6.25199796 10.502,6.66 C9.6019955,7.06800204 8.8220033,7.63799634 8.162,8.37 C7.5019967,9.10200366 6.98600186,9.97199496 6.614,10.98 C6.24199814,11.988005 6.056,13.0799941 6.056,14.256 C6.056,15.456006 6.24199814,16.553995 6.614,17.55 C6.98600186,18.546005 7.49599676,19.4099963 8.144,20.142 C8.79200324,20.8740037 9.55399562,21.443998 10.43,21.852 C11.3060044,22.260002 12.247995,22.464 13.256,22.464 C14.4080058,22.464 15.4279956,22.2240024 16.316,21.744 C17.2040044,21.2639976 17.9359971,20.5920043 18.512,19.728 L23.192,23.22 C22.1119946,24.7320076 20.7440083,25.8479964 19.088,26.568 C17.4319917,27.2880036 15.7280088,27.648 13.976,27.648 C11.98399,27.648 10.1480084,27.3360031 8.468,26.712 C6.7879916,26.0879969 5.33600612,25.1940058 4.112,24.03 C2.88799388,22.8659942 1.93400342,21.4560083 1.25,19.8 C0.56599658,18.1439917 0.224,16.2960102 0.224,14.256 C0.224,12.2159898 0.56599658,10.3680083 1.25,8.712 C1.93400342,7.05599172 2.88799388,5.64600582 4.112,4.482 C5.33600612,3.31799418 6.7879916,2.42400312 8.468,1.8 C10.1480084,1.17599688 11.98399,0.864 13.976,0.864 C14.6960036,0.864 15.4459961,0.92999934 16.226,1.062 C17.0060039,1.19400066 17.7739962,1.40399856 18.53,1.692 C19.2860038,1.98000144 20.0119965,2.3639976 20.708,2.844 C21.4040035,3.3240024 22.0279972,3.91199652 22.58,4.608 L18.26,8.136 Z M34.64,1.512 L39.284,1.512 L50.372,27 L44.036,27 L41.84,21.6 L31.94,21.6 L29.816,27 L23.624,27 L34.64,1.512 Z M36.8,8.928 L33.704,16.848 L39.932,16.848 L36.8,8.928 Z M52.928,1.512 L62.792,1.512 C64.0880065,1.512 65.3179942,1.63799874 66.482,1.89 C67.6460058,2.14200126 68.6659956,2.56199706 69.542,3.15 C70.4180044,3.73800294 71.1139974,4.52999502 71.63,5.526 C72.1460026,6.52200498 72.404,7.76399256 72.404,9.252 C72.404,11.052009 71.9360047,12.5819937 71,13.842 C70.0639953,15.1020063 68.696009,15.8999983 66.896,16.236 L73.376,27 L66.644,27 L61.316,16.812 L58.544,16.812 L58.544,27 L52.928,27 L52.928,1.512 Z M58.544,12.06 L61.856,12.06 C62.3600025,12.06 62.8939972,12.0420002 63.458,12.006 C64.0220028,11.9699998 64.5319977,11.8620009 64.988,11.682 C65.4440023,11.5019991 65.8219985,11.2200019 66.122,10.836 C66.4220015,10.4519981 66.572,9.91200348 66.572,9.216 C66.572,8.56799676 66.4400013,8.05200192 66.176,7.668 C65.9119987,7.28399808 65.576002,6.99000102 65.168,6.786 C64.759998,6.58199898 64.2920026,6.44400036 63.764,6.372 C63.2359974,6.29999964 62.7200025,6.264 62.216,6.264 L58.544,6.264 L58.544,12.06 Z M76.256,1.512 L84.68,1.512 C86.7200102,1.512 88.6579908,1.73999772 90.494,2.196 C92.3300092,2.65200228 93.9319932,3.3899949 95.3,4.41 C96.6680068,5.4300051 97.753996,6.75599184 98.558,8.388 C99.362004,10.0200082 99.764,11.9999884 99.764,14.328 C99.764,16.3920103 99.3740039,18.2099921 98.594,19.782 C97.8139961,21.3540079 96.7640066,22.6739947 95.444,23.742 C94.1239934,24.8100053 92.6000086,25.6199972 90.872,26.172 C89.1439914,26.7240028 87.3320095,27 85.436,27 L76.256,27 L76.256,1.512 Z M81.872,21.816 L84.788,21.816 C86.0840065,21.816 87.2899944,21.6840013 88.406,21.42 C89.5220056,21.1559987 90.4879959,20.7180031 91.304,20.106 C92.1200041,19.4939969 92.7619977,18.690005 93.23,17.694 C93.6980023,16.697995 93.932,15.4800072 93.932,14.04 C93.932,12.7919938 93.6980023,11.7060046 93.23,10.782 C92.7619977,9.85799538 92.132004,9.096003 91.34,8.496 C90.547996,7.895997 89.6180053,7.4460015 88.55,7.146 C87.4819947,6.8459985 86.3600059,6.696 85.184,6.696 L81.872,6.696 L81.872,21.816 Z M103.508,1.512 L109.124,1.512 L109.124,27 L103.508,27 L103.508,1.512 Z M126.836,7.74 C126.379998,7.16399712 125.762004,6.73800138 124.982,6.462 C124.201996,6.18599862 123.464003,6.048 122.768,6.048 C122.359998,6.048 121.940002,6.09599952 121.508,6.192 C121.075998,6.28800048 120.668002,6.43799898 120.284,6.642 C119.899998,6.84600102 119.588001,7.11599832 119.348,7.452 C119.107999,7.78800168 118.988,8.1959976 118.988,8.676 C118.988,9.44400384 119.275997,10.031998 119.852,10.44 C120.428003,10.848002 121.153996,11.1959986 122.03,11.484 C122.906004,11.7720014 123.847995,12.0599986 124.856,12.348 C125.864005,12.6360014 126.805996,13.0439974 127.682,13.572 C128.558004,14.1000026 129.283997,14.8079956 129.86,15.696 C130.436003,16.5840044 130.724,17.7719926 130.724,19.26 C130.724,20.6760071 130.460003,21.9119947 129.932,22.968 C129.403997,24.0240053 128.690005,24.8999965 127.79,25.596 C126.889996,26.2920035 125.846006,26.8079983 124.658,27.144 C123.469994,27.4800017 122.216007,27.648 120.896,27.648 C119.239992,27.648 117.704007,27.3960025 116.288,26.892 C114.871993,26.3879975 113.552006,25.5720056 112.328,24.444 L116.324,20.052 C116.900003,20.8200038 117.625996,21.4139979 118.502,21.834 C119.378004,22.2540021 120.283995,22.464 121.22,22.464 C121.676002,22.464 122.137998,22.4100005 122.606,22.302 C123.074002,22.1939995 123.493998,22.0320011 123.866,21.816 C124.238002,21.5999989 124.537999,21.3240017 124.766,20.988 C124.994001,20.6519983 125.108,20.2560023 125.108,19.8 C125.108,19.0319962 124.814003,18.4260022 124.226,17.982 C123.637997,17.5379978 122.900004,17.1600016 122.012,16.848 C121.123996,16.5359984 120.164005,16.2240016 119.132,15.912 C118.099995,15.5999984 117.140004,15.1800026 116.252,14.652 C115.363996,14.1239974 114.626003,13.4280043 114.038,12.564 C113.449997,11.6999957 113.156,10.5600071 113.156,9.144 C113.156,7.77599316 113.425997,6.57600516 113.966,5.544 C114.506003,4.51199484 115.225996,3.64800348 116.126,2.952 C117.026005,2.25599652 118.063994,1.73400174 119.24,1.386 C120.416006,1.03799826 121.627994,0.864 122.876,0.864 C124.316007,0.864 125.707993,1.06799796 127.052,1.476 C128.396007,1.88400204 129.607995,2.5679952 130.688,3.528 L126.836,7.74 Z M139.832,6.48 L132.56,6.48 L132.56,1.512 L152.72,1.512 L152.72,6.48 L145.448,6.48 L145.448,27 L139.832,27 L139.832,6.48 Z M155.564,1.512 L165.428,1.512 C166.724006,1.512 167.953994,1.63799874 169.118,1.89 C170.282006,2.14200126 171.301996,2.56199706 172.178,3.15 C173.054004,3.73800294 173.749997,4.52999502 174.266,5.526 C174.782003,6.52200498 175.04,7.76399256 175.04,9.252 C175.04,11.052009 174.572005,12.5819937 173.636,13.842 C172.699995,15.1020063 171.332009,15.8999983 169.532,16.236 L176.012,27 L169.28,27 L163.952,16.812 L161.18,16.812 L161.18,27 L155.564,27 L155.564,1.512 Z M161.18,12.06 L164.492,12.06 C164.996003,12.06 165.529997,12.0420002 166.094,12.006 C166.658003,11.9699998 167.167998,11.8620009 167.624,11.682 C168.080002,11.5019991 168.457999,11.2200019 168.758,10.836 C169.058001,10.4519981 169.208,9.91200348 169.208,9.216 C169.208,8.56799676 169.076001,8.05200192 168.812,7.668 C168.547999,7.28399808 168.212002,6.99000102 167.804,6.786 C167.395998,6.58199898 166.928003,6.44400036 166.4,6.372 C165.871997,6.29999964 165.356003,6.264 164.852,6.264 L161.18,6.264 L161.18,12.06 Z M183.824,16.128 L174.248,1.512 L181.232,1.512 L186.632,11.052 L192.356,1.512 L199.016,1.512 L189.44,16.128 L189.44,27 L183.824,27 L183.824,16.128 Z M196.316,23.904 C196.316,23.4479977 196.399999,23.016002 196.568,22.608 C196.736001,22.199998 196.969999,21.8460015 197.27,21.546 C197.570002,21.2459985 197.923998,21.0120008 198.332,20.844 C198.740002,20.6759992 199.171998,20.592 199.628,20.592 C200.084002,20.592 200.515998,20.6759992 200.924,20.844 C201.332002,21.0120008 201.685999,21.2459985 201.986,21.546 C202.286002,21.8460015 202.519999,22.199998 202.688,22.608 C202.856001,23.016002 202.94,23.4479977 202.94,23.904 C202.94,24.3600023 202.856001,24.791998 202.688,25.2 C202.519999,25.608002 202.286002,25.9619985 201.986,26.262 C201.685999,26.5620015 201.332002,26.7959992 200.924,26.964 C200.515998,27.1320008 200.084002,27.216 199.628,27.216 C199.171998,27.216 198.740002,27.1320008 198.332,26.964 C197.923998,26.7959992 197.570002,26.5620015 197.27,26.262 C196.969999,25.9619985 196.736001,25.608002 196.568,25.2 C196.399999,24.791998 196.316,24.3600023 196.316,23.904 L196.316,23.904 Z M207.476,1.512 L213.092,1.512 L213.092,27 L207.476,27 L207.476,1.512 Z M216.836,14.256 C216.836,12.2159898 217.177997,10.3680083 217.862,8.712 C218.546003,7.05599172 219.499994,5.64600582 220.724,4.482 C221.948006,3.31799418 223.399992,2.42400312 225.08,1.8 C226.760008,1.17599688 228.59599,0.864 230.588,0.864 C232.58001,0.864 234.415992,1.17599688 236.096,1.8 C237.776008,2.42400312 239.227994,3.31799418 240.452,4.482 C241.676006,5.64600582 242.629997,7.05599172 243.314,8.712 C243.998003,10.3680083 244.34,12.2159898 244.34,14.256 C244.34,16.2960102 243.998003,18.1439917 243.314,19.8 C242.629997,21.4560083 241.676006,22.8659942 240.452,24.03 C239.227994,25.1940058 237.776008,26.0879969 236.096,26.712 C234.415992,27.3360031 232.58001,27.648 230.588,27.648 C228.59599,27.648 226.760008,27.3360031 225.08,26.712 C223.399992,26.0879969 221.948006,25.1940058 220.724,24.03 C219.499994,22.8659942 218.546003,21.4560083 217.862,19.8 C217.177997,18.1439917 216.836,16.2960102 216.836,14.256 L216.836,14.256 Z M222.668,14.256 C222.668,15.456006 222.853998,16.553995 223.226,17.55 C223.598002,18.546005 224.131997,19.4099963 224.828,20.142 C225.524003,20.8740037 226.357995,21.443998 227.33,21.852 C228.302005,22.260002 229.387994,22.464 230.588,22.464 C231.788006,22.464 232.873995,22.260002 233.846,21.852 C234.818005,21.443998 235.651997,20.8740037 236.348,20.142 C237.044003,19.4099963 237.577998,18.546005 237.95,17.55 C238.322002,16.553995 238.508,15.456006 238.508,14.256 C238.508,13.0799941 238.322002,11.988005 237.95,10.98 C237.577998,9.97199496 237.044003,9.10200366 236.348,8.37 C235.651997,7.63799634 234.818005,7.06800204 233.846,6.66 C232.873995,6.25199796 231.788006,6.048 230.588,6.048 C229.387994,6.048 228.302005,6.25199796 227.33,6.66 C226.357995,7.06800204 225.524003,7.63799634 224.828,8.37 C224.131997,9.10200366 223.598002,9.97199496 223.226,10.98 C222.853998,11.988005 222.668,13.0799941 222.668,14.256 L222.668,14.256 Z" id="CARDISTRY.IO" fill="#FFFFFF"></path>
                </g>
            </g>
        </g>
    </g>
</svg>