<?xml version="1.0" encoding="UTF-8" standalone="no"?>
<svg width="291px" height="95px" viewBox="0 0 291 95" version="1.1" xmlns="http://www.w3.org/2000/svg" xmlns:xlink="http://www.w3.org/1999/xlink" xmlns:sketch="http://www.bohemiancoding.com/sketch/ns">
    <!-- Generator: Sketch 3.3.2 (12043) - http://www.bohemiancoding.com/sketch -->
    <title>logo</title>
    <desc>Created with Sketch.</desc>
    <defs></defs>
    <g id="Welcome" stroke="none" stroke-width="1" fill="none" fill-rule="evenodd" sketch:type="MSPage">
        <g id="Stream" sketch:type="MSArtboardGroup">
            <g id="Head" sketch:type="MSLayerGroup" transform="translate(17.000000, 23.000000)">
                <g id="Logo">
                    <path d="M242,47 L3,47" id="Underline" stroke="#247BA0" stroke-width="4" stroke-linecap="square" sketch:type="MSShapeGroup"></path>
                    <text id="beta" sketch:type="MSTextLayer" font-family="Avenir" font-size="12" font-style="italic" font-weight="260" fill="#FB3640">
                        <tspan x="243" y="12">beta</tspan>
                    </text>
                    <path d="M18.26,19.136 C17.7079972,18.4639966 17.030004,17.9480018 16.226,17.588 C15.421996,17.2279982 14.4920053,17.048 13.436,17.048 C12.3799947,17.048 11.4020045,17.251998 10.502,17.66 C9.6019955,18.068002 8.8220033,18.6379963 8.162,19.37 C7.5019967,20.1020037 6.98600186,20.971995 6.614,21.98 C6.24199814,22.988005 6.056,24.0799941 6.056,25.256 C6.056,26.456006 6.24199814,27.553995 6.614,28.55 C6.98600186,29.546005 7.49599676,30.4099963 8.144,31.142 C8.79200324,31.8740037 9.55399562,32.443998 10.43,32.852 C11.3060044,33.260002 12.247995,33.464 13.256,33.464 C14.4080058,33.464 15.4279956,33.2240024 16.316,32.744 C17.2040044,32.2639976 17.9359971,31.5920043 18.512,30.728 L23.192,34.22 C22.1119946,35.7320076 20.7440083,36.8479964 19.088,37.568 C17.4319917,38.2880036 15.7280088,38.648 13.976,38.648 C11.98399,38.648 10.1480084,38.3360031 8.468,37.712 C6.7879916,37.0879969 5.33600612,36.1940058 4.112,35.03 C2.88799388,33.8659942 1.93400342,32.4560083 1.25,30.8 C0.56599658,29.1439917 0.224,27.2960102 0.224,25.256 C0.224,23.2159898 0.56599658,21.3680083 1.25,19.712 C1.93400342,18.0559917 2.88799388,16.6460058 4.112,15.482 C5.33600612,14.3179942 6.7879916,13.4240031 8.468,12.8 C10.1480084,12.1759969 11.98399,11.864 13.976,11.864 C14.6960036,11.864 15.4459961,11.9299993 16.226,12.062 C17.0060039,12.1940007 17.7739962,12.4039986 18.53,12.692 C19.2860038,12.9800014 20.0119965,13.3639976 20.708,13.844 C21.4040035,14.3240024 22.0279972,14.9119965 22.58,15.608 L18.26,19.136 Z M34.64,12.512 L39.284,12.512 L50.372,38 L44.036,38 L41.84,32.6 L31.94,32.6 L29.816,38 L23.624,38 L34.64,12.512 Z M36.8,19.928 L33.704,27.848 L39.932,27.848 L36.8,19.928 Z M52.928,12.512 L62.792,12.512 C64.0880065,12.512 65.3179942,12.6379987 66.482,12.89 C67.6460058,13.1420013 68.6659956,13.5619971 69.542,14.15 C70.4180044,14.7380029 71.1139974,15.529995 71.63,16.526 C72.1460026,17.522005 72.404,18.7639926 72.404,20.252 C72.404,22.052009 71.9360047,23.5819937 71,24.842 C70.0639953,26.1020063 68.696009,26.8999983 66.896,27.236 L73.376,38 L66.644,38 L61.316,27.812 L58.544,27.812 L58.544,38 L52.928,38 L52.928,12.512 Z M58.544,23.06 L61.856,23.06 C62.3600025,23.06 62.8939972,23.0420002 63.458,23.006 C64.0220028,22.9699998 64.5319977,22.8620009 64.988,22.682 C65.4440023,22.5019991 65.8219985,22.2200019 66.122,21.836 C66.4220015,21.4519981 66.572,20.9120035 66.572,20.216 C66.572,19.5679968 66.4400013,19.0520019 66.176,18.668 C65.9119987,18.2839981 65.576002,17.990001 65.168,17.786 C64.759998,17.581999 64.2920026,17.4440004 63.764,17.372 C63.2359974,17.2999996 62.7200025,17.264 62.216,17.264 L58.544,17.264 L58.544,23.06 Z M76.256,12.512 L84.68,12.512 C86.7200102,12.512 88.6579908,12.7399977 90.494,13.196 C92.3300092,13.6520023 93.9319932,14.3899949 95.3,15.41 C96.6680068,16.4300051 97.753996,17.7559918 98.558,19.388 C99.362004,21.0200082 99.764,22.9999884 99.764,25.328 C99.764,27.3920103 99.3740039,29.2099921 98.594,30.782 C97.8139961,32.3540079 96.7640066,33.6739947 95.444,34.742 C94.1239934,35.8100053 92.6000086,36.6199972 90.872,37.172 C89.1439914,37.7240028 87.3320095,38 85.436,38 L76.256,38 L76.256,12.512 Z M81.872,32.816 L84.788,32.816 C86.0840065,32.816 87.2899944,32.6840013 88.406,32.42 C89.5220056,32.1559987 90.4879959,31.7180031 91.304,31.106 C92.1200041,30.4939969 92.7619977,29.690005 93.23,28.694 C93.6980023,27.697995 93.932,26.4800072 93.932,25.04 C93.932,23.7919938 93.6980023,22.7060046 93.23,21.782 C92.7619977,20.8579954 92.132004,20.096003 91.34,19.496 C90.547996,18.895997 89.6180053,18.4460015 88.55,18.146 C87.4819947,17.8459985 86.3600059,17.696 85.184,17.696 L81.872,17.696 L81.872,32.816 Z M103.508,12.512 L109.124,12.512 L109.124,38 L103.508,38 L103.508,12.512 Z M126.836,18.74 C126.379998,18.1639971 125.762004,17.7380014 124.982,17.462 C124.201996,17.1859986 123.464003,17.048 122.768,17.048 C122.359998,17.048 121.940002,17.0959995 121.508,17.192 C121.075998,17.2880005 120.668002,17.437999 120.284,17.642 C119.899998,17.846001 119.588001,18.1159983 119.348,18.452 C119.107999,18.7880017 118.988,19.1959976 118.988,19.676 C118.988,20.4440038 119.275997,21.031998 119.852,21.44 C120.428003,21.848002 121.153996,22.1959986 122.03,22.484 C122.906004,22.7720014 123.847995,23.0599986 124.856,23.348 C125.864005,23.6360014 126.805996,24.0439974 127.682,24.572 C128.558004,25.1000026 129.283997,25.8079956 129.86,26.696 C130.436003,27.5840044 130.724,28.7719926 130.724,30.26 C130.724,31.6760071 130.460003,32.9119947 129.932,33.968 C129.403997,35.0240053 128.690005,35.8999965 127.79,36.596 C126.889996,37.2920035 125.846006,37.8079983 124.658,38.144 C123.469994,38.4800017 122.216007,38.648 120.896,38.648 C119.239992,38.648 117.704007,38.3960025 116.288,37.892 C114.871993,37.3879975 113.552006,36.5720056 112.328,35.444 L116.324,31.052 C116.900003,31.8200038 117.625996,32.4139979 118.502,32.834 C119.378004,33.2540021 120.283995,33.464 121.22,33.464 C121.676002,33.464 122.137998,33.4100005 122.606,33.302 C123.074002,33.1939995 123.493998,33.0320011 123.866,32.816 C124.238002,32.5999989 124.537999,32.3240017 124.766,31.988 C124.994001,31.6519983 125.108,31.2560023 125.108,30.8 C125.108,30.0319962 124.814003,29.4260022 124.226,28.982 C123.637997,28.5379978 122.900004,28.1600016 122.012,27.848 C121.123996,27.5359984 120.164005,27.2240016 119.132,26.912 C118.099995,26.5999984 117.140004,26.1800026 116.252,25.652 C115.363996,25.1239974 114.626003,24.4280043 114.038,23.564 C113.449997,22.6999957 113.156,21.5600071 113.156,20.144 C113.156,18.7759932 113.425997,17.5760052 113.966,16.544 C114.506003,15.5119948 115.225996,14.6480035 116.126,13.952 C117.026005,13.2559965 118.063994,12.7340017 119.24,12.386 C120.416006,12.0379983 121.627994,11.864 122.876,11.864 C124.316007,11.864 125.707993,12.067998 127.052,12.476 C128.396007,12.884002 129.607995,13.5679952 130.688,14.528 L126.836,18.74 Z M139.832,17.48 L132.56,17.48 L132.56,12.512 L152.72,12.512 L152.72,17.48 L145.448,17.48 L145.448,38 L139.832,38 L139.832,17.48 Z M155.564,12.512 L165.428,12.512 C166.724006,12.512 167.953994,12.6379987 169.118,12.89 C170.282006,13.1420013 171.301996,13.5619971 172.178,14.15 C173.054004,14.7380029 173.749997,15.529995 174.266,16.526 C174.782003,17.522005 175.04,18.7639926 175.04,20.252 C175.04,22.052009 174.572005,23.5819937 173.636,24.842 C172.699995,26.1020063 171.332009,26.8999983 169.532,27.236 L176.012,38 L169.28,38 L163.952,27.812 L161.18,27.812 L161.18,38 L155.564,38 L155.564,12.512 Z M161.18,23.06 L164.492,23.06 C164.996003,23.06 165.529997,23.0420002 166.094,23.006 C166.658003,22.9699998 167.167998,22.8620009 167.624,22.682 C168.080002,22.5019991 168.457999,22.2200019 168.758,21.836 C169.058001,21.4519981 169.208,20.9120035 169.208,20.216 C169.208,19.5679968 169.076001,19.0520019 168.812,18.668 C168.547999,18.2839981 168.212002,17.990001 167.804,17.786 C167.395998,17.581999 166.928003,17.4440004 166.4,17.372 C165.871997,17.2999996 165.356003,17.264 164.852,17.264 L161.18,17.264 L161.18,23.06 Z M183.824,27.128 L174.248,12.512 L181.232,12.512 L186.632,22.052 L192.356,12.512 L199.016,12.512 L189.44,27.128 L189.44,38 L183.824,38 L183.824,27.128 Z M196.316,34.904 C196.316,34.4479977 196.399999,34.016002 196.568,33.608 C196.736001,33.199998 196.969999,32.8460015 197.27,32.546 C197.570002,32.2459985 197.923998,32.0120008 198.332,31.844 C198.740002,31.6759992 199.171998,31.592 199.628,31.592 C200.084002,31.592 200.515998,31.6759992 200.924,31.844 C201.332002,32.0120008 201.685999,32.2459985 201.986,32.546 C202.286002,32.8460015 202.519999,33.199998 202.688,33.608 C202.856001,34.016002 202.94,34.4479977 202.94,34.904 C202.94,35.3600023 202.856001,35.791998 202.688,36.2 C202.519999,36.608002 202.286002,36.9619985 201.986,37.262 C201.685999,37.5620015 201.332002,37.7959992 200.924,37.964 C200.515998,38.1320008 200.084002,38.216 199.628,38.216 C199.171998,38.216 198.740002,38.1320008 198.332,37.964 C197.923998,37.7959992 197.570002,37.5620015 197.27,37.262 C196.969999,36.9619985 196.736001,36.608002 196.568,36.2 C196.399999,35.791998 196.316,35.3600023 196.316,34.904 L196.316,34.904 Z M207.476,12.512 L213.092,12.512 L213.092,38 L207.476,38 L207.476,12.512 Z M216.836,25.256 C216.836,23.2159898 217.177997,21.3680083 217.862,19.712 C218.546003,18.0559917 219.499994,16.6460058 220.724,15.482 C221.948006,14.3179942 223.399992,13.4240031 225.08,12.8 C226.760008,12.1759969 228.59599,11.864 230.588,11.864 C232.58001,11.864 234.415992,12.1759969 236.096,12.8 C237.776008,13.4240031 239.227994,14.3179942 240.452,15.482 C241.676006,16.6460058 242.629997,18.0559917 243.314,19.712 C243.998003,21.3680083 244.34,23.2159898 244.34,25.256 C244.34,27.2960102 243.998003,29.1439917 243.314,30.8 C242.629997,32.4560083 241.676006,33.8659942 240.452,35.03 C239.227994,36.1940058 237.776008,37.0879969 236.096,37.712 C234.415992,38.3360031 232.58001,38.648 230.588,38.648 C228.59599,38.648 226.760008,38.3360031 225.08,37.712 C223.399992,37.0879969 221.948006,36.1940058 220.724,35.03 C219.499994,33.8659942 218.546003,32.4560083 217.862,30.8 C217.177997,29.1439917 216.836,27.2960102 216.836,25.256 L216.836,25.256 Z M222.668,25.256 C222.668,26.456006 222.853998,27.553995 223.226,28.55 C223.598002,29.546005 224.131997,30.4099963 224.828,31.142 C225.524003,31.8740037 226.357995,32.443998 227.33,32.852 C228.302005,33.260002 229.387994,33.464 230.588,33.464 C231.788006,33.464 232.873995,33.260002 233.846,32.852 C234.818005,32.443998 235.651997,31.8740037 236.348,31.142 C237.044003,30.4099963 237.577998,29.546005 237.95,28.55 C238.322002,27.553995 238.508,26.456006 238.508,25.256 C238.508,24.0799941 238.322002,22.988005 237.95,21.98 C237.577998,20.971995 237.044003,20.1020037 236.348,19.37 C235.651997,18.6379963 234.818005,18.068002 233.846,17.66 C232.873995,17.251998 231.788006,17.048 230.588,17.048 C229.387994,17.048 228.302005,17.251998 227.33,17.66 C226.357995,18.068002 225.524003,18.6379963 224.828,19.37 C224.131997,20.1020037 223.598002,20.971995 223.226,21.98 C222.853998,22.988005 222.668,24.0799941 222.668,25.256 L222.668,25.256 Z" id="CARDISTRY.IO" fill="#FB3640" sketch:type="MSShapeGroup"></path>
                </g>
            </g>
        </g>
    </g>
</svg>